<?xml version="1.0" encoding="utf-8"?>
<svg xmlns="http://www.w3.org/2000/svg"
	xmlns:xlink="http://www.w3.org/1999/xlink"
	width="81px" height="63px" viewBox="0 0 81 63">
<path fillRule="evenodd" d="M 77.5 62.61C 75.89 62.61 74.58 61.34 74.5 59.75 74.5 59.75 63.01 59.75 63.01 59.75 62.93 60.25 62.85 60.74 62.77 61.23 62.77 61.23 5.67 61.23 5.67 61.23 4.05 51.04 2.44 40.85 0.82 30.65-2.11 12.26 16.71 0.5 32.96 0.42 33.97 0.42 34.47 0.42 35.48 0.42 51.73 0.5 70.55 12.26 67.62 30.65 67.48 31.52 67.34 32.39 67.21 33.26 67.21 33.26 69.36 33.7 69.36 33.7 70.15 33.86 70.67 34.6 70.55 35.39 70.55 35.39 68.94 46.25 68.94 46.25 68.88 46.65 68.66 47.02 68.32 47.26 68.07 47.43 67.76 47.53 67.46 47.53 67.36 47.53 67.26 47.52 67.16 47.5 67.16 47.5 65.02 47.06 65.02 47.06 64.67 49.29 64.31 51.52 63.96 53.74 63.96 53.74 77.5 53.74 77.5 53.74 79.16 53.74 80.51 55.09 80.51 56.75 80.51 56.75 80.51 59.6 80.51 59.6 80.51 61.26 79.16 62.61 77.5 62.61ZM 34.22 13.49C 23.43 13.49 14.68 22.24 14.68 33.03 14.68 43.82 23.43 52.56 34.22 52.56 45.01 52.56 53.76 43.82 53.76 33.03 53.76 22.24 45.01 13.49 34.22 13.49ZM 40.35 41.38C 36.73 41.38 34.91 39.27 34.91 36.39 34.91 36.39 34.91 29.18 34.91 29.18 34.91 26.3 36.73 24.19 40.35 24.19 43.98 24.19 45.79 26.3 45.79 29.18 45.79 29.18 45.79 36.39 45.79 36.39 45.79 39.27 43.98 41.38 40.35 41.38ZM 42.38 29.22C 42.38 28.01 41.76 27.17 40.39 27.17 40.39 27.17 40.31 27.17 40.31 27.17 38.94 27.17 38.33 28.01 38.33 29.22 38.33 29.22 38.33 36.35 38.33 36.35 38.33 37.56 38.94 38.4 40.31 38.4 40.31 38.4 40.39 38.4 40.39 38.4 41.76 38.4 42.38 37.56 42.38 36.35 42.38 36.35 42.38 29.22 42.38 29.22ZM 23.31 38.12C 23.31 38.12 26.06 38.12 26.06 38.12 26.06 38.12 26.06 28.67 26.06 28.67 26.06 28.67 23.43 30.44 23.43 30.44 23.43 30.44 21.75 27.96 21.75 27.96 21.75 27.96 26.93 24.44 26.93 24.44 26.93 24.44 29.47 24.44 29.47 24.44 29.47 24.44 29.47 38.12 29.47 38.12 29.47 38.12 32.52 38.12 32.52 38.12 32.52 38.12 32.52 41.11 32.52 41.11 32.52 41.11 23.31 41.11 23.31 41.11 23.31 41.11 23.31 38.12 23.31 38.12Z" fill="rgb(129,193,71)"/></svg>