<?xml version="1.0" encoding="utf-8"?>
<svg xmlns="http://www.w3.org/2000/svg"
	xmlns:xlink="http://www.w3.org/1999/xlink"
	width="78px" height="80px" viewBox="0 0 78 80">
<path fillRule="evenodd" d="M 74.9 31.44C 74.9 31.44 69.89 34.34 69.89 34.34 70.22 36.18 70.42 38.06 70.42 40 70.42 41.94 70.22 43.83 69.89 45.67 69.89 45.67 74.91 48.57 74.91 48.57 77.13 49.85 77.89 52.69 76.61 54.91 76.61 54.91 70.72 65.1 70.72 65.1 69.44 67.32 66.6 68.08 64.38 66.8 64.38 66.8 59.36 63.9 59.36 63.9 56.48 66.34 53.17 68.26 49.54 69.56 49.54 69.56 49.54 75.36 49.54 75.36 49.54 77.92 47.46 80 44.89 80 44.89 80 33.14 80 33.14 80 30.57 80 28.49 77.92 28.49 75.36 28.49 75.36 28.49 69.56 28.49 69.56 24.86 68.26 21.54 66.34 18.67 63.9 18.67 63.9 13.65 66.8 13.65 66.8 12.59 67.42 11.32 67.58 10.13 67.26 8.94 66.95 7.92 66.17 7.31 65.1 7.31 65.1 1.42 54.91 1.42 54.91 0.14 52.69 0.9 49.85 3.12 48.57 3.12 48.57 8.14 45.67 8.14 45.67 7.8 43.83 7.6 41.94 7.6 40 7.6 38.06 7.8 36.17 8.14 34.34 8.14 34.34 3.12 31.44 3.12 31.44 0.9 30.16 0.14 27.32 1.42 25.09 1.42 25.09 7.31 14.9 7.31 14.9 7.92 13.84 8.94 13.06 10.13 12.74 11.32 12.42 12.59 12.59 13.65 13.2 13.65 13.2 18.67 16.1 18.67 16.1 21.54 13.66 24.85 11.73 28.49 10.43 28.49 10.43 28.49 4.64 28.49 4.64 28.49 2.08 30.57-0 33.14-0 33.14-0 44.89-0 44.89-0 47.46-0 49.54 2.08 49.54 4.64 49.54 4.64 49.54 10.43 49.54 10.43 53.16 11.73 56.48 13.66 59.36 16.1 59.36 16.1 64.38 13.21 64.38 13.21 66.6 11.92 69.44 12.69 70.72 14.91 70.72 14.91 76.6 25.1 76.6 25.1 77.89 27.32 77.13 30.16 74.9 31.44ZM 39.02 18.49C 27.13 18.49 17.5 28.12 17.5 40 17.5 51.88 27.13 61.51 39.02 61.51 50.89 61.51 60.53 51.88 60.53 40 60.53 28.12 50.89 18.49 39.02 18.49ZM 38.6 51.39C 37.81 52.49 36.58 53.08 35.32 53.08 34.53 53.08 33.73 52.84 33.02 52.36 33.02 52.36 26.57 47.85 26.57 47.85 24.75 46.58 24.3 44.08 25.57 42.26 26.84 40.43 29.35 39.99 31.17 41.26 31.17 41.26 34.36 43.48 34.36 43.48 34.36 43.48 44.11 29.77 44.11 29.77 45.4 27.96 47.91 27.54 49.72 28.82 51.52 30.11 51.95 32.62 50.66 34.42 50.66 34.42 38.6 51.39 38.6 51.39Z" fill="rgb(129,193,71)"/></svg>