<?xml version="1.0" encoding="utf-8"?>
<svg xmlns="http://www.w3.org/2000/svg"
	xmlns:xlink="http://www.w3.org/1999/xlink"
	width="81px" height="81px" viewBox="0 0 81 81">
<path fillRule="evenodd" d="M 74.72 32.55C 69.39 37.88 61.67 39.37 55 37.03 55 37.03 52.31 39.73 52.31 39.73 51.05 38.48 49.39 37.8 47.63 37.8 46.56 37.8 45.53 38.05 44.61 38.52 44.61 38.52 37.65 31.56 37.65 31.56 37.65 31.56 43.49 25.72 43.49 25.72 41 18.99 42.46 11.13 47.87 5.72 52.36 1.24 58.53-0.53 64.35 0.41 64.99 0.52 65.52 0.97 65.72 1.59 65.92 2.21 65.76 2.88 65.3 3.34 65.3 3.34 61.3 7.34 61.3 7.34 58.04 10.6 58.04 15.88 61.3 19.13 64.56 22.39 69.84 22.39 73.1 19.13 73.1 19.13 77.1 15.14 77.1 15.14 77.56 14.68 78.24 14.51 78.86 14.71 79.48 14.91 79.93 15.44 80.03 16.08 80.98 21.9 79.21 28.06 74.72 32.55ZM 18.6 18.32C 18.6 18.32 44.38 44.08 44.38 44.08 44.38 44.08 45.83 42.63 45.83 42.63 46.33 42.14 46.98 41.89 47.63 41.89 48.28 41.89 48.93 42.14 49.42 42.63 49.42 42.63 73.21 66.4 73.21 66.4 76.36 69.55 76.36 74.66 73.21 77.81 70.06 80.96 64.94 80.96 61.79 77.81 61.79 77.81 38 54.04 38 54.04 37.01 53.05 37.01 51.44 38 50.45 38 50.45 39.55 48.91 39.55 48.91 39.55 48.91 13.77 23.14 13.77 23.14 13.77 23.14 12.56 24.35 12.56 24.35 11.46 25.45 9.64 25.31 8.72 24.06 8.72 24.06 0.97 13.55 0.97 13.55 0.23 12.54 0.34 11.13 1.22 10.25 1.22 10.25 5.69 5.78 5.69 5.78 6.58 4.9 7.98 4.79 8.99 5.54 8.99 5.54 19.51 13.28 19.51 13.28 20.76 14.2 20.9 16.02 19.8 17.11 19.8 17.11 18.6 18.32 18.6 18.32ZM 27.02 42.17C 27.02 42.17 33.96 49.1 33.96 49.1 32.61 51.61 32.99 54.81 35.09 56.92 35.09 56.92 14.19 77.81 14.19 77.81 11.04 80.96 5.93 80.96 2.77 77.81-0.38 74.66-0.38 69.55 2.77 66.4 2.77 66.4 27.02 42.17 27.02 42.17Z" fill="rgb(129,193,71)"/></svg>