<?xml version="1.0" encoding="utf-8"?>
<svg xmlns="http://www.w3.org/2000/svg"
	xmlns:xlink="http://www.w3.org/1999/xlink"
	width="80px" height="80px" viewBox="0 0 80 80">
<path fillRule="evenodd" d="M 79.83 61.99C 79.61 61.31 78.17 60.3 75.52 58.98 74.8 58.56 73.77 57.99 72.45 57.27 71.12 56.55 69.92 55.89 68.84 55.28 67.76 54.68 66.75 54.09 65.8 53.52 65.65 53.41 65.17 53.08 64.38 52.53 63.58 51.98 62.91 51.57 62.36 51.31 61.81 51.04 61.27 50.91 60.74 50.91 59.98 50.91 59.04 51.45 57.9 52.53 56.76 53.61 55.72 54.78 54.78 56.05 53.83 57.32 52.83 58.49 51.77 59.57 50.7 60.65 49.83 61.19 49.15 61.19 48.81 61.19 48.38 61.1 47.87 60.91 47.36 60.72 46.97 60.56 46.71 60.43 46.44 60.29 45.99 60.03 45.34 59.63 44.7 59.23 44.34 59.02 44.26 58.98 39.07 56.1 34.62 52.8 30.91 49.09 27.2 45.38 23.9 40.93 21.02 35.74 20.98 35.66 20.77 35.3 20.37 34.66 19.97 34.01 19.7 33.56 19.57 33.29 19.44 33.03 19.28 32.64 19.09 32.13 18.9 31.61 18.81 31.19 18.81 30.85 18.81 30.17 19.35 29.29 20.42 28.23 21.5 27.17 22.68 26.17 23.95 25.22 25.22 24.28 26.39 23.23 27.47 22.1 28.55 20.96 29.09 20.01 29.09 19.26 29.09 18.73 28.96 18.19 28.69 17.64 28.43 17.09 28.02 16.42 27.47 15.62 26.92 14.82 26.59 14.35 26.48 14.2 25.91 13.25 25.32 12.24 24.71 11.16 24.11 10.08 23.45 8.88 22.73 7.55 22.01 6.22 21.44 5.2 21.02 4.48 19.7 1.83 18.69 0.39 18.01 0.16 17.74 0.05 17.35-0.01 16.82-0.01 15.79-0.01 14.46 0.18 12.81 0.56 11.16 0.94 9.86 1.34 8.92 1.75 7.02 2.55 5.01 4.86 2.89 8.69 0.96 12.25-0 15.77-0 19.26-0 20.28 0.06 21.27 0.19 22.24 0.33 23.21 0.56 24.29 0.9 25.51 1.25 26.72 1.52 27.62 1.73 28.21 1.94 28.79 2.32 29.84 2.89 31.36 3.46 32.88 3.8 33.8 3.92 34.14 5.24 37.86 6.81 41.17 8.63 44.09 11.62 48.94 15.71 53.95 20.88 59.12 26.05 64.29 31.06 68.37 35.91 71.37 38.83 73.18 42.14 74.76 45.85 76.08 46.19 76.2 47.12 76.54 48.64 77.11 50.15 77.67 51.2 78.06 51.79 78.27 52.38 78.48 53.28 78.76 54.49 79.1 55.7 79.44 56.79 79.67 57.76 79.81 58.72 79.94 59.72 80.01 60.74 80.01 64.23 80.01 67.75 79.04 71.31 77.11 75.14 74.99 77.45 72.98 78.24 71.08 78.66 70.14 79.06 68.84 79.44 67.19 79.82 65.54 80 64.21 80 63.19 80.01 62.65 79.95 62.26 79.83 61.99Z" fill="rgb(129,193,71)"/></svg>