<?xml version="1.0" encoding="utf-8"?>
<svg xmlns="http://www.w3.org/2000/svg"
	xmlns:xlink="http://www.w3.org/1999/xlink"
	width="80px" height="70px" viewBox="0 0 80 70">
<path fillRule="evenodd" d="M 77.3 62.24C 77.3 62.24 64.91 62.24 64.91 62.24 64.91 62.24 64.91 51.34 64.91 51.34 68.11 48.56 70.13 44.46 70.13 39.9 70.13 31.54 63.33 24.74 54.98 24.74 46.62 24.74 39.82 31.54 39.82 39.9 39.82 44.47 41.84 48.56 45.04 51.34 45.04 51.34 45.04 62.24 45.04 62.24 45.04 62.24 2.7 62.24 2.7 62.24 1.21 62.24-0 61.03-0 59.54-0 59.54-0 3.6-0 3.6-0 2.11 1.21 0.9 2.7 0.9 2.7 0.9 77.3 0.9 77.3 0.9 78.79 0.9 80 2.11 80 3.6 80 3.6 80 59.54 80 59.54 80 61.03 78.79 62.24 77.3 62.24ZM 12.03 47.72C 12.03 47.72 26.01 47.72 26.01 47.72 27.21 47.72 28.18 46.75 28.18 45.55 28.18 44.36 27.21 43.39 26.01 43.39 26.01 43.39 12.03 43.39 12.03 43.39 10.83 43.39 9.86 44.36 9.86 45.55 9.86 46.75 10.83 47.72 12.03 47.72ZM 12.03 33.73C 12.03 33.73 30.68 33.73 30.68 33.73 31.87 33.73 32.84 32.76 32.84 31.57 32.84 30.37 31.87 29.41 30.68 29.41 30.68 29.41 12.03 29.41 12.03 29.41 10.83 29.41 9.86 30.37 9.86 31.57 9.86 32.76 10.83 33.73 12.03 33.73ZM 44.66 15.42C 44.66 15.42 12.03 15.42 12.03 15.42 10.83 15.42 9.86 16.39 9.86 17.58 9.86 18.78 10.83 19.75 12.03 19.75 12.03 19.75 44.66 19.75 44.66 19.75 45.86 19.75 46.82 18.78 46.82 17.58 46.82 16.39 45.86 15.42 44.66 15.42ZM 54.98 29.07C 60.95 29.07 65.81 33.93 65.81 39.9 65.81 45.88 60.95 50.74 54.98 50.74 49 50.74 44.14 45.88 44.14 39.9 44.14 33.93 49 29.07 54.98 29.07ZM 60.58 53.98C 60.58 53.98 60.58 68.73 60.58 68.73 60.58 69.5 59.78 70 59.09 69.65 59.09 69.65 55.94 68.08 55.94 68.08 55.64 67.93 55.31 67.85 54.98 67.85 54.64 67.85 54.31 67.93 54.01 68.08 54.01 68.08 50.86 69.65 50.86 69.65 50.17 70 49.37 69.5 49.37 68.73 49.37 68.73 49.37 53.98 49.37 53.98 51.1 54.68 52.99 55.06 54.98 55.06 56.96 55.06 58.85 54.68 60.58 53.98Z" fill="rgb(129,193,71)"/></svg>