<?xml version="1.0" encoding="utf-8"?>
<svg xmlns="http://www.w3.org/2000/svg"
	xmlns:xlink="http://www.w3.org/1999/xlink"
	width="89px" height="81px" viewBox="0 0 89 81">
<path fillRule="evenodd" d="M 24.67 11.68C 24.67 5.51 29.72 0.5 35.94 0.5 42.16 0.5 47.21 5.51 47.21 11.68 47.21 17.86 42.16 22.87 35.94 22.87 29.72 22.87 24.67 17.86 24.67 11.68ZM 41.36 30.5C 41.47 28.06 42.31 25.81 43.67 23.94 42.72 23.74 41.73 23.64 40.72 23.64 40.72 23.64 31.16 23.64 31.16 23.64 30.15 23.64 29.17 23.74 28.22 23.94 29.67 25.93 30.53 28.36 30.55 31 32.3 30.04 34.32 29.49 36.46 29.49 38.2 29.49 39.85 29.85 41.36 30.5ZM 43.26 31.5C 46.54 33.54 48.83 36.99 49.25 40.99 50.58 41.61 52.07 41.97 53.64 41.97 59.37 41.97 64.02 37.35 64.02 31.66 64.02 25.96 59.37 21.35 53.64 21.35 47.96 21.35 43.35 25.88 43.26 31.5ZM 36.46 52.61C 42.2 52.61 46.84 47.99 46.84 42.3 46.84 36.61 42.2 31.99 36.46 31.99 30.73 31.99 26.08 36.61 26.08 42.3 26.08 47.99 30.73 52.61 36.46 52.61ZM 40.87 53.31C 40.87 53.31 32.06 53.31 32.06 53.31 24.73 53.31 18.77 59.23 18.77 66.51 18.77 66.51 18.77 77.21 18.77 77.21 18.77 77.21 18.79 77.38 18.79 77.38 18.79 77.38 19.54 77.61 19.54 77.61 26.53 79.78 32.61 80.5 37.61 80.5 47.38 80.5 53.04 77.74 53.39 77.56 53.39 77.56 54.08 77.21 54.08 77.21 54.08 77.21 54.16 77.21 54.16 77.21 54.16 77.21 54.16 66.51 54.16 66.51 54.16 59.23 48.2 53.31 40.87 53.31ZM 58.04 42.67C 58.04 42.67 49.3 42.67 49.3 42.67 49.21 46.14 47.71 49.27 45.35 51.52 51.87 53.44 56.63 59.44 56.63 66.53 56.63 66.53 56.63 69.83 56.63 69.83 65.26 69.51 70.24 67.08 70.56 66.92 70.56 66.92 71.26 66.57 71.26 66.57 71.26 66.57 71.33 66.57 71.33 66.57 71.33 66.57 71.33 55.87 71.33 55.87 71.33 48.59 65.37 42.67 58.04 42.67ZM 60.38 21.13C 63.65 23.17 65.95 26.61 66.37 30.62 67.7 31.24 69.18 31.59 70.75 31.59 76.48 31.59 81.13 26.98 81.13 21.28 81.13 15.59 76.48 10.98 70.75 10.98 65.07 10.98 60.47 15.51 60.38 21.13ZM 75.16 32.3C 75.16 32.3 66.42 32.3 66.42 32.3 66.32 35.77 64.83 38.9 62.47 41.15 68.98 43.07 73.75 49.07 73.75 56.16 73.75 56.16 73.75 59.45 73.75 59.45 82.38 59.14 87.35 56.71 87.68 56.55 87.68 56.55 88.37 56.2 88.37 56.2 88.37 56.2 88.45 56.2 88.45 56.2 88.45 56.2 88.45 45.5 88.45 45.5 88.45 38.22 82.48 32.3 75.16 32.3ZM 18.25 41.97C 20.28 41.97 22.17 41.38 23.77 40.37 24.28 37.08 26.06 34.2 28.6 32.24 28.61 32.04 28.63 31.85 28.63 31.66 28.63 25.96 23.98 21.35 18.25 21.35 12.51 21.35 7.87 25.96 7.87 31.66 7.87 37.35 12.51 41.97 18.25 41.97ZM 27.57 51.52C 25.22 49.28 23.73 46.17 23.62 42.72 23.3 42.69 22.98 42.67 22.65 42.67 22.65 42.67 13.84 42.67 13.84 42.67 6.51 42.67 0.55 48.59 0.55 55.87 0.55 55.87 0.55 66.57 0.55 66.57 0.55 66.57 0.58 66.74 0.58 66.74 0.58 66.74 1.32 66.97 1.32 66.97 6.93 68.71 11.94 69.51 16.29 69.76 16.29 69.76 16.29 66.53 16.29 66.53 16.29 59.44 21.06 53.44 27.57 51.52Z" fill="rgb(129,193,71)"/></svg>