<?xml version="1.0" encoding="utf-8"?>
<svg xmlns="http://www.w3.org/2000/svg"
	xmlns:xlink="http://www.w3.org/1999/xlink"
	width="83px" height="81px" viewBox="0 0 83 81">
<path fillRule="evenodd" d="M 79.54 59.33C 79.54 59.33 56.53 59.33 56.53 59.33 52.13 59.33 48.57 55.77 48.57 51.38 48.57 46.98 52.13 43.42 56.53 43.42 56.53 43.42 79.54 43.42 79.54 43.42 80.99 43.42 82.16 44.6 82.16 46.05 82.16 46.05 82.16 56.7 82.16 56.7 82.16 58.15 80.99 59.33 79.54 59.33ZM 44.51 51.38C 44.51 57.99 49.9 63.38 56.53 63.38 56.53 63.38 76.86 63.38 76.86 63.38 76.86 63.38 76.86 75.57 76.86 75.57 76.86 78.31 74.64 80.52 71.91 80.52 71.91 80.52 5.79 80.52 5.79 80.52 3.05 80.52 0.84 78.31 0.84 75.57 0.84 75.57 0.84 27.18 0.84 27.18 0.84 24.45 3.05 22.23 5.79 22.23 5.79 22.23 71.91 22.23 71.91 22.23 74.64 22.23 76.86 24.45 76.86 27.18 76.86 27.18 76.86 39.37 76.86 39.37 76.86 39.37 56.53 39.37 56.53 39.37 49.9 39.37 44.51 44.76 44.51 51.38ZM 56.55 6.3C 56.27 5.92 55.87 5.88 55.72 5.88 55.56 5.88 55.34 5.91 55.11 6.08 55.11 6.08 51.47 8.75 51.47 8.75 51.47 8.75 48.27 4.38 48.27 4.38 48.27 4.38 51.91 1.72 51.91 1.72 54.68-0.31 58.89 0.35 60.91 3.1 60.91 3.1 70.98 16.82 70.98 16.82 70.98 16.82 64.27 16.82 64.27 16.82 64.27 16.82 56.55 6.3 56.55 6.3ZM 45.65 16.82C 45.65 16.82 37.93 6.3 37.93 6.3 37.65 5.92 37.26 5.88 37.1 5.88 36.95 5.88 36.72 5.92 36.5 6.08 36.5 6.08 21.83 16.82 21.83 16.82 21.83 16.82 12.67 16.82 12.67 16.82 12.67 16.82 33.3 1.72 33.3 1.72 36.06-0.31 40.28 0.35 42.3 3.1 42.3 3.1 52.36 16.82 52.36 16.82 52.36 16.82 45.65 16.82 45.65 16.82Z" fill="rgb(129,193,71)"/></svg>