<?xml version="1.0" encoding="utf-8"?>
<svg xmlns="http://www.w3.org/2000/svg"
	xmlns:xlink="http://www.w3.org/1999/xlink"
	width="57px" height="81px" viewBox="0 0 57 81">
<path fillRule="evenodd" d="M 53.54 8.04C 53.54 8.04 56.65 8.04 56.65 8.04 56.65 8.04 56.65 0.5 56.65 0.5 56.65 0.5 0.34 0.5 0.34 0.5 0.34 0.5 0.34 8.04 0.34 8.04 0.34 8.04 3.45 8.04 3.45 8.04 3.45 8.04 3.45 10 3.45 10 3.45 22.29 7.64 33.56 14.52 40.25 7.64 46.93 3.45 58.2 3.45 70.49 3.45 70.49 3.45 72.96 3.45 72.96 3.45 72.96 0.34 72.96 0.34 72.96 0.34 72.96 0.34 80.5 0.34 80.5 0.34 80.5 56.65 80.5 56.65 80.5 56.65 80.5 56.65 72.96 56.65 72.96 56.65 72.96 53.54 72.96 53.54 72.96 53.54 72.96 53.54 70.49 53.54 70.49 53.54 58.2 49.36 46.93 42.47 40.25 49.36 33.56 53.54 22.29 53.54 10 53.54 10 53.54 8.04 53.54 8.04ZM 37.23 38.28C 37.23 38.28 34.65 40.25 34.65 40.25 34.65 40.25 37.23 42.21 37.23 42.21 43.67 47.13 48 57.08 48.57 68.02 48.57 68.02 8.43 68.02 8.43 68.02 9 57.08 13.32 47.13 19.77 42.21 19.77 42.21 22.35 40.25 22.35 40.25 22.35 40.25 19.77 38.28 19.77 38.28 13.32 33.36 9 23.41 8.43 12.47 8.43 12.47 48.57 12.47 48.57 12.47 48 23.41 43.67 33.36 37.23 38.28ZM 13.6 16.39C 13.6 16.39 43.39 16.39 43.39 16.39 42.96 24.7 39.68 32.26 34.78 35.99 34.78 35.99 33.94 36.35 32.82 37.48 30.51 40.81 30.38 52.97 30.38 53.51 32.04 53.69 33.84 54.39 35.62 56.03 41.9 61.8 43.73 62.48 43.94 66.67 43.94 66.67 14.48 66.67 14.48 66.67 14.7 62.48 18.28 59.49 22.81 56.03 22.81 56.03 24.96 54.13 27.99 53.6 27.93 53.5 27.9 53.44 27.9 53.44 27.9 41.98 24.18 37.07 24.18 37.07 24.18 37.07 21.53 35.58 21.53 35.58 16.63 31.84 14.04 24.7 13.6 16.39Z" fill="rgb(129,193,71)"/></svg>