<?xml version="1.0" encoding="utf-8"?>
<svg xmlns="http://www.w3.org/2000/svg"
	xmlns:xlink="http://www.w3.org/1999/xlink"
	width="65px" height="81px" viewBox="0 0 65 81">
<path fillRule="evenodd" d="M 62.6 29.98C 61.53 31.46 61.55 33.46 62.63 34.93 62.63 34.93 63.61 36.27 63.61 36.27 65.12 38.34 64.48 41.26 62.24 42.49 62.24 42.49 60.78 43.31 60.78 43.31 59.19 44.19 58.34 45.99 58.67 47.79 58.67 47.79 58.97 49.43 58.97 49.43 59.44 51.93 57.59 54.29 55.04 54.43 55.04 54.43 53.37 54.53 53.37 54.53 51.55 54.65 50 55.91 49.52 57.66 49.52 57.66 49.08 59.26 49.08 59.26 48.41 61.71 45.73 63.04 43.37 62.06 43.37 62.06 41.83 61.42 41.83 61.42 40.15 60.73 38.2 61.19 37.01 62.56 37.01 62.56 35.91 63.82 35.91 63.82 34.24 65.75 31.25 65.77 29.55 63.87 29.55 63.87 28.43 62.63 28.43 62.63 27.21 61.27 25.26 60.85 23.59 61.57 23.59 61.57 22.05 62.22 22.05 62.22 19.7 63.23 17 61.96 16.29 59.5 16.29 59.5 15.84 57.9 15.84 57.9 15.33 56.15 13.76 54.92 11.94 54.84 11.94 54.84 10.27 54.78 10.27 54.78 7.72 54.68 5.84 52.36 6.26 49.84 6.26 49.84 6.54 48.18 6.54 48.18 6.85 46.38 5.97 44.6 4.37 43.73 4.37 43.73 2.89 42.95 2.89 42.95 0.65 41.74-0.04 38.83 1.44 36.75 1.44 36.75 2.4 35.39 2.4 35.39 3.47 33.9 3.45 31.91 2.37 30.43 2.37 30.43 1.39 29.09 1.39 29.09-0.12 27.03 0.52 24.12 2.76 22.88 2.76 22.88 4.22 22.06 4.22 22.06 5.81 21.17 6.66 19.38 6.33 17.58 6.33 17.58 6.03 15.94 6.03 15.94 5.56 13.44 7.41 11.08 9.96 10.93 9.96 10.93 11.63 10.84 11.63 10.84 13.45 10.72 15 9.46 15.48 7.71 15.48 7.71 15.92 6.11 15.92 6.11 16.59 3.65 19.27 2.33 21.63 3.31 21.63 3.31 23.17 3.95 23.17 3.95 24.85 4.64 26.8 4.18 27.99 2.8 27.99 2.8 29.09 1.54 29.09 1.54 30.76-0.39 33.75-0.4 35.45 1.49 35.45 1.49 36.57 2.74 36.57 2.74 37.79 4.1 39.74 4.52 41.41 3.8 41.41 3.8 42.95 3.15 42.95 3.15 45.3 2.13 48 3.41 48.71 5.86 48.71 5.86 49.16 7.47 49.16 7.47 49.67 9.22 51.24 10.44 53.06 10.52 53.06 10.52 54.73 10.59 54.73 10.59 57.28 10.69 59.16 13.01 58.74 15.53 58.74 15.53 58.46 17.18 58.46 17.18 58.15 18.98 59.03 20.77 60.63 21.63 60.63 21.63 62.11 22.42 62.11 22.42 64.35 23.63 65.04 26.54 63.56 28.62 63.56 28.62 62.6 29.98 62.6 29.98ZM 32.48 11.41C 20.74 11.41 11.21 20.95 11.21 32.68 11.21 44.41 20.74 53.94 32.48 53.94 44.21 53.94 53.75 44.41 53.75 32.68 53.75 20.95 44.21 11.41 32.48 11.41ZM 44.7 35.85C 44.7 35.85 46.15 38.25 43.59 40.18 43.59 40.18 44.76 43.49 40.02 44.5 38.63 44.8 36.86 44.78 35.21 44.65 33.39 44.68 31.58 44.6 30.1 44.5 26 44.06 25.96 36.93 25.96 36.7 25.96 36.7 25.96 42.64 25.96 42.64 25.96 43.96 25.49 44.44 25.41 44.52 25.03 44.78 24.57 44.93 24.08 44.93 24.08 44.93 20.5 44.93 20.5 44.93 19.19 44.93 18.11 43.87 18.11 42.54 18.11 42.54 18.11 32.99 18.11 32.99 18.11 31.68 19.17 30.6 20.5 30.6 20.5 30.6 24.08 30.6 24.08 30.6 24.67 30.6 25.21 30.81 25.64 31.17 25.83 30.58 26.23 29.75 26.93 28.99 29.6 26.95 32.39 19.24 32.39 19.24 32.39 19.24 31.95 16.45 33.26 16.45 34.57 16.45 37.68 17.33 35.81 22.97 33.95 28.62 35.81 27.75 35.81 27.75 36.24 27.65 36.63 27.57 37.01 27.51 37.01 27.51 42.39 26.3 44.37 28.11 45.96 29.57 44.73 31.48 44.73 31.48 44.73 31.48 46.96 33.48 44.7 35.85ZM 10.08 59.49C 10.08 59.49 11.39 59.54 11.39 59.54 11.39 59.54 11.76 60.83 11.76 60.83 12.86 64.63 16.39 67.28 20.35 67.28 21.58 67.28 22.76 67.03 23.89 66.54 23.89 66.54 25.15 66.03 25.15 66.03 25.15 66.03 25.19 66.08 25.19 66.08 25.19 66.08 18.96 77.42 18.96 77.42 18.6 78.06 17.98 78.51 17.26 78.65 17.26 78.65 9.95 80 9.95 80 8.8 80.22 7.65 79.59 7.21 78.5 7.21 78.5 4.45 71.59 4.45 71.59 4.17 70.91 4.22 70.14 4.58 69.5 4.58 69.5 10.08 59.49 10.08 59.49ZM 41.57 66.42C 42.65 66.87 43.8 67.1 44.98 67.1 48.98 67.1 52.54 64.4 53.6 60.52 53.6 60.52 53.96 59.21 53.96 59.21 53.96 59.21 54.69 59.16 54.69 59.16 54.69 59.16 60.39 69.48 60.39 69.48 60.75 70.12 60.8 70.89 60.52 71.58 60.52 71.58 57.75 78.48 57.75 78.48 57.31 79.58 56.17 80.2 55.02 79.99 55.02 79.99 47.71 78.63 47.71 78.63 46.99 78.5 46.37 78.04 46.01 77.4 46.01 77.4 39.94 66.36 39.94 66.36 39.94 66.36 40.33 65.9 40.33 65.9 40.33 65.9 41.57 66.42 41.57 66.42Z" fill="rgb(129,193,71)"/></svg>